<svg width="12" height="14" viewBox="0 0 12 14" fill="none" xmlns="http://www.w3.org/2000/svg">
<path d="M10.8333 7.46364H6.66667V12.1284C6.66667 12.3759 6.57887 12.6132 6.42259 12.7881C6.26631 12.9631 6.05435 13.0614 5.83333 13.0614C5.61232 13.0614 5.40036 12.9631 5.24408 12.7881C5.0878 12.6132 5 12.3759 5 12.1284V7.46364H0.833333C0.61232 7.46364 0.400358 7.36535 0.244078 7.19039C0.0877975 7.01543 0 6.77812 0 6.53069C0 6.28325 0.0877975 6.04595 0.244078 5.87099C0.400358 5.69603 0.61232 5.59773 0.833333 5.59773H5V0.932956C5 0.68552 5.0878 0.448219 5.24408 0.273256C5.40036 0.098293 5.61232 0 5.83333 0C6.05435 0 6.26631 0.098293 6.42259 0.273256C6.57887 0.448219 6.66667 0.68552 6.66667 0.932956V5.59773H10.8333C11.0543 5.59773 11.2663 5.69603 11.4226 5.87099C11.5789 6.04595 11.6667 6.28325 11.6667 6.53069C11.6667 6.77812 11.5789 7.01543 11.4226 7.19039C11.2663 7.36535 11.0543 7.46364 10.8333 7.46364Z" fill="#845CFC"/>
</svg>
