<svg width="30" height="27" viewBox="0 0 30 27" fill="none" xmlns="http://www.w3.org/2000/svg">
<path d="M30 8.39781C30 17.8792 16.0996 25.5537 15.5076 25.8707C15.3516 25.9556 15.1772 26 15 26C14.8228 26 14.6484 25.9556 14.4924 25.8707C13.9004 25.5537 0 17.8792 0 8.39781C0.00248134 6.17135 0.878116 4.03679 2.4348 2.46243C3.99148 0.888083 6.10209 0.00250951 8.30357 0C11.0692 0 13.4906 1.20278 15 3.23587C16.5094 1.20278 18.9308 0 21.6964 0C23.8979 0.00250951 26.0085 0.888083 27.5652 2.46243C29.1219 4.03679 29.9975 6.17135 30 8.39781Z" fill="#845CFC"/>
<circle cx="24.5" cy="21.5" r="5.5" fill="#FD0404"/>
</svg>
