<svg width="36" height="35" viewBox="0 0 36 35" fill="none" xmlns="http://www.w3.org/2000/svg">
<path d="M35.4709 16.7502C35.5226 16.5761 35.5054 16.4281 35.4192 16.3062C34.1431 14.0597 33.3327 12.7188 32.9878 12.2834L32.8326 12.0222L32.8067 11.9961C32.7378 11.4388 32.4274 10.4549 31.8756 9.04429C31.3583 7.65112 31.0393 6.94583 30.9186 6.92842C30.4357 6.09252 29.8581 5.2305 29.1856 4.34236C28.5303 3.50646 27.8319 2.69668 27.0904 1.91303C26.4524 1.30352 26.1248 0.990058 26.1075 0.972644C26.0177 0.904686 25.1555 0.782784 23.521 0.606938C21.9069 0.429391 20.1135 0.472927 18.1409 0.737547C16.4338 1.08584 15.0371 1.71276 13.9507 2.61832L13.9248 2.64444C10.3209 3.16688 8.47581 3.44551 8.38959 3.48034C8.25164 3.51517 8.13955 3.60224 8.05334 3.74156C8.01885 3.75897 7.75157 4.20304 7.2515 5.07377C6.66521 6.08381 6.17377 7.06774 5.77716 8.02554C5.77716 8.06037 5.47539 9.02687 4.87186 10.9251C3.73378 12.0744 2.79399 13.633 2.05251 15.6009C0.997611 19.9591 0.480299 22.2143 0.500573 22.3664C0.536071 22.5216 0.587802 22.6522 0.655767 22.7582C0.673011 22.7757 0.888557 23.1588 1.30241 23.9076C1.85421 24.7609 2.45774 25.5707 3.113 26.3369C3.45943 26.7731 3.89052 27.2346 4.40628 27.7214C4.91895 28.2238 5.89322 28.9378 7.3291 29.8634C8.76653 30.7898 9.53387 31.2599 9.63114 31.274C9.99326 31.5178 10.4416 31.9183 10.9762 32.4756L12.735 34.1212C12.8385 34.2257 12.9678 34.278 13.123 34.278C15.3474 34.1038 16.4252 33.9819 16.3562 33.9123C16.5286 33.8774 16.8218 33.8339 17.2356 33.7817C17.7474 33.9746 18.2905 34.1226 18.8652 34.2257C19.3581 34.2802 19.9099 34.3499 20.5206 34.4347C20.5943 34.4446 20.6633 34.4533 20.7275 34.4608C21.0747 34.4818 21.4282 34.4905 21.788 34.4869C21.7535 34.5218 22.2708 34.4869 23.3399 34.3825C24.4263 34.278 25.1074 34.1909 25.3833 34.1212C26.3662 33.9471 27.3577 33.6946 28.3579 33.3637C28.8579 33.2244 29.2718 33.0851 29.5994 32.9458C29.7029 32.9283 29.7891 32.8674 29.8581 32.7629C30.065 32.5017 30.3236 32.1621 30.634 31.7442C31.1839 30.8889 31.7184 29.992 32.2377 29.0536C32.7608 28.1191 33.2091 26.6127 33.5827 24.5345C33.9716 22.4718 34.0837 21.2789 33.919 20.9558C34.9363 18.2043 35.4537 16.8025 35.4709 16.7502ZM25.4092 1.99139C26.3058 2.80988 27.1767 3.76768 28.0216 4.86479C29.5218 6.72815 30.5737 8.48702 31.1772 10.1414C29.9529 9.02687 28.7889 8.54797 27.6853 8.7047C27.306 7.99071 26.8663 7.24188 26.3662 6.45823C25.9351 5.81389 25.7109 5.48301 25.6937 5.4656C25.6075 5.3437 25.4954 5.27404 25.3574 5.25662C25.0126 5.15213 24.5987 5.05636 24.1159 4.96928C23.1847 4.82997 22.3139 4.7516 21.5035 4.73419H21.012C20.9948 4.71677 20.9689 4.68194 20.9344 4.6297C19.9515 3.48034 18.3479 2.81859 16.1234 2.64444C17.6064 1.96527 19.4773 1.6344 21.7363 1.65181C23.0295 1.66923 24.2538 1.78242 25.4092 1.99139ZM13.4334 3.84604C14.6232 3.77639 15.6837 3.80251 16.6149 3.92441C17.8047 4.08114 18.7445 4.40331 19.4342 4.89092C17.9512 5.16955 16.9856 5.78777 16.5373 6.74557L16.2269 6.6672C15.4164 6.51047 14.5973 6.38857 13.7696 6.3015C13.3385 6.24925 12.9764 6.20572 12.6833 6.17089C12.5626 6.17089 12.4591 6.19701 12.3729 6.24925C12.3039 6.28408 12.2263 6.34503 12.1401 6.4321C12.1229 6.44952 11.8814 6.7891 11.4159 7.45086C10.8468 8.28675 10.3554 9.09653 9.94153 9.88019C9.6139 10.4375 9.32937 11.0034 9.08796 11.5781C8.19129 11.7522 7.22564 12.562 6.19101 14.0074C5.88062 13.3457 5.82027 12.4575 6.00995 11.343L6.03582 11.2646C6.24274 10.1675 6.67384 8.93109 7.3291 7.55534C7.81192 6.49306 8.34648 5.50043 8.93277 4.57746C9.48457 4.43814 10.0536 4.32494 10.6399 4.23787C11.6228 4.06373 12.554 3.93312 13.4334 3.84604ZM19.3049 6.14476C19.9084 5.98803 20.6154 5.91838 21.4259 5.93579C22.0811 5.9532 22.7795 6.01416 23.521 6.11864C24.0038 6.20572 24.4521 6.27537 24.866 6.32762C25.7627 7.59888 26.4783 8.87885 27.0128 10.1675C27.7198 11.8219 27.8492 12.9451 27.4008 13.5372C26.211 12.057 25.0557 11.2211 23.9348 11.0295C23.1416 10.9076 22.3829 11.0905 21.6587 11.5781C21.8138 10.777 21.6759 10.0456 21.2448 9.38387C20.6585 8.42607 19.4859 7.65983 17.7271 7.08515C18.0202 6.6672 18.5462 6.35374 19.3049 6.14476ZM12.8902 7.42473C14.3042 7.52922 15.632 7.76432 16.8735 8.13002C18.6324 8.60021 19.7618 9.23585 20.2619 10.0369C20.5551 10.4897 20.6068 11.0383 20.4171 11.6826C19.1756 11.195 17.9081 11.0818 16.6149 11.343C15.2698 11.6216 14.1231 12.2399 13.1747 13.1977C12.6747 13.7027 12.2608 14.2774 11.9332 14.9217C11.6228 15.5312 11.4159 16.1668 11.3124 16.8286C10.4847 16.6544 9.95015 16.2626 9.70874 15.6531C9.32937 14.6953 9.59665 13.2847 10.5106 11.4214C11.1486 10.0456 11.9418 8.71341 12.8902 7.42473ZM16.7183 16.1233C17.046 16.1233 17.4598 16.2539 17.9599 16.5151C18.253 16.6719 18.4944 16.7763 18.6841 16.8286C18.9773 16.9331 19.2532 16.9766 19.5118 16.9592C19.4946 17.1333 19.4946 17.3336 19.5118 17.56C19.7015 19.0228 19.4601 20.1548 18.7876 20.9558L18.71 20.9036C17.7098 20.4334 16.8908 19.85 16.2527 19.1534C15.6147 18.5091 15.1836 17.7951 14.9595 17.0114C15.6665 16.4716 16.2527 16.1755 16.7183 16.1233ZM17.0287 14.9217C16.3562 14.8869 15.6406 15.1133 14.8819 15.6009C14.9681 14.5734 15.4768 13.5895 16.4079 12.6491C17.3563 12.3705 18.322 12.3443 19.3049 12.5707C20.2878 12.832 21.15 13.337 21.8914 14.0858L21.969 14.1642C21.6069 14.199 21.2793 14.2948 20.9862 14.4515C20.4516 14.7127 20.0636 15.122 19.8222 15.6792C19.598 15.7489 19.3825 15.7576 19.1756 15.7054C19.0376 15.6879 18.8134 15.6009 18.503 15.4441C17.9168 15.1307 17.4253 14.9565 17.0287 14.9217ZM14.0283 14.0858C13.6489 14.9914 13.5541 15.9143 13.7438 16.8547C13.9162 18.0563 14.4939 19.1447 15.4768 20.1199C16.0975 20.7469 16.8563 21.2954 17.7529 21.7656C17.1494 22.0442 16.4683 22.1836 15.7096 22.1836C15.0371 22.1836 14.4163 22.0617 13.8472 21.8179C12.8471 20.7382 12.3557 19.4408 12.3729 17.9257C12.4246 16.4281 12.9764 15.1481 14.0283 14.0858ZM22.745 13.1977C22.5898 13.0409 22.4001 12.8668 22.176 12.6752C22.676 12.2921 23.2106 12.1441 23.7796 12.2311C24.6246 12.3705 25.5385 13.0932 26.5214 14.3993C27.2456 15.3396 27.875 16.3845 28.4096 17.5339C27.8578 18.4917 27.237 19.3798 26.5473 20.1983C25.5989 21.3128 24.728 21.9659 23.9348 22.1574C23.7279 22.2097 23.521 22.2184 23.3141 22.1836C24.3314 20.8252 24.7884 19.3102 24.6849 17.6384C24.5987 15.8969 23.9521 14.4167 22.745 13.1977ZM20.8568 16.2539C20.9948 15.9056 21.2189 15.6618 21.5293 15.5225C21.7707 15.4006 22.038 15.3484 22.3312 15.3658C22.6071 15.418 22.8399 15.5312 23.0295 15.7054C23.4951 16.7502 23.6331 17.8386 23.4434 18.9706C23.2365 20.1374 22.7191 21.1474 21.8914 22.0007C21.1327 22.7669 20.2447 23.2633 19.2273 23.4897C18.2272 23.7335 17.227 23.6899 16.2269 23.359C17.3477 23.2894 18.2875 22.9672 19.0462 22.3925C19.6153 21.9398 20.0636 21.3651 20.3912 20.6685C20.7706 19.7629 20.8913 18.6745 20.7534 17.4033C20.6671 16.9679 20.7016 16.5848 20.8568 16.2539ZM32.0566 12.9887C32.5222 13.6504 32.9878 14.3731 33.4534 15.1568C33.7465 15.6618 34.0224 16.1494 34.2811 16.6196C33.8672 17.8909 33.3844 19.0838 32.8326 20.1983C32.3325 21.2258 31.798 22.0704 31.2289 22.7321C30.6599 23.4113 30.0909 23.9076 29.5218 24.2211C30.1426 21.696 30.0133 19.85 29.1338 18.6832C29.2545 18.4743 29.3666 18.2827 29.4701 18.1086C29.5218 18.0041 29.5649 17.9083 29.5994 17.8212C29.7029 17.6471 29.7115 17.4816 29.6253 17.3249C29.5391 17.0985 29.3925 16.7851 29.1856 16.3845C28.8407 15.7053 28.4699 15.0871 28.0733 14.5299C29.0562 13.6243 29.108 12.0831 28.2285 9.90631C28.7114 9.94114 29.2373 10.1762 29.8063 10.6116C30.4961 11.134 31.2462 11.9264 32.0566 12.9887ZM4.71667 12.9626C4.78565 13.8333 5.03568 14.5647 5.46677 15.1568C5.41504 15.2265 5.30296 15.4006 5.13052 15.6792C4.71667 16.4281 4.30282 17.2378 3.88897 18.1086C3.63031 18.6832 3.45788 19.0751 3.37166 19.284C3.33717 19.3711 3.32855 19.4582 3.34579 19.5453C3.34579 19.6672 3.37166 19.7629 3.42339 19.8326C3.42339 19.8674 3.69929 20.2418 4.25109 20.9558C4.85462 21.8092 5.45815 22.558 6.06168 23.2023L6.21688 23.359C5.76854 24.8219 6.3462 26.6765 7.94987 28.923C6.51864 28.1568 5.13052 26.9377 3.78551 25.2659C2.99229 24.3081 2.32841 23.3329 1.79385 22.3403C1.91456 21.1213 2.12149 19.8587 2.41463 18.5526C2.96643 16.2539 3.73378 14.3906 4.71667 12.9626ZM8.57065 13.1715C8.2775 14.3209 8.29475 15.2961 8.62238 16.0972C8.76033 16.4803 8.96725 16.8112 9.24315 17.0898C9.70873 17.56 10.364 17.8909 11.2089 18.0824C9.98464 18.7268 9.26902 19.6323 9.0621 20.7991C8.88966 21.9485 9.25178 23.2981 10.1485 24.848C9.80358 24.8306 9.38973 24.639 8.9069 24.2733C8.33786 23.8554 7.69122 23.2371 6.96698 22.4187C6.17377 21.5305 5.38055 20.5379 4.58734 19.4408C5.13914 18.1695 5.7513 16.9853 6.4238 15.8882C7.21701 14.5647 7.93263 13.6591 8.57065 13.1715ZM11.3383 19.4146C11.459 20.059 11.6659 20.6685 11.959 21.2432C12.3039 21.8353 12.7178 22.3751 13.2006 22.8627C14.3214 23.9773 15.6665 24.6303 17.2356 24.8219C18.8221 24.996 20.2705 24.6651 21.5811 23.8292C21.8225 24.4213 21.8139 24.9525 21.5552 25.4227C21.2965 25.8929 20.7878 26.2847 20.0291 26.5982C19.2876 26.9464 18.3392 27.2164 17.1839 27.4079C16.0975 27.5821 14.9853 27.6779 13.8472 27.6953C12.9161 26.7897 12.1056 25.7884 11.4159 24.6913C10.4675 23.1936 10.0709 21.9659 10.226 21.0081C10.3468 20.3637 10.7175 19.8326 11.3383 19.4146ZM9.88979 29.4977C9.06209 28.4876 8.41545 27.556 7.94987 26.7026C7.51878 25.8493 7.28599 25.1092 7.2515 24.4823C8.71722 25.8406 9.90704 26.3369 10.821 25.9712C11.459 26.8942 12.1832 27.7562 12.9937 28.5573L13.2006 28.714C13.3213 28.8359 13.4593 28.8969 13.6144 28.8969C13.9248 28.8969 14.3128 28.8882 14.7784 28.8708C15.6751 28.8011 16.5459 28.714 17.3908 28.6095C17.8047 28.5399 18.2013 28.4528 18.5806 28.3483C18.6669 28.4702 18.7617 28.5834 18.8652 28.6879C19.6756 29.5064 20.8482 29.8895 22.3829 29.8373C21.7276 30.8647 20.3223 31.6832 18.1668 32.2927C16.6321 32.7107 15.0112 32.9719 13.3041 33.0764C12.873 32.6758 12.416 32.2318 11.9332 31.7442C11.1745 30.9779 10.4933 30.2291 9.88979 29.4977ZM24.2194 23.3329C25.4092 23.0543 26.6766 22.0355 28.0216 20.2767L28.3837 19.8065C28.8148 20.6424 28.8321 21.9311 28.4354 23.6725C28.1595 24.9264 27.7457 26.1541 27.1939 27.3557C26.8145 27.5298 26.4007 27.704 25.9524 27.8781C25.2798 28.1219 24.6246 28.3048 23.9866 28.4267C22.107 28.8272 20.7361 28.6705 19.8739 27.9565C21.2189 27.5037 22.1242 26.8681 22.5898 26.0496C23.0554 25.2311 23.0813 24.3081 22.6674 23.2807C23.1675 23.4548 23.6848 23.4722 24.2194 23.3329ZM23.7796 29.7066C24.6418 29.5499 25.573 29.2887 26.5731 28.923C27.1249 28.714 27.5646 28.5138 27.8923 28.3222C28.013 28.2874 28.1078 28.2003 28.1768 28.061C28.4872 27.3644 28.7976 26.5633 29.108 25.6578H29.2114C30.3667 25.3443 31.4703 24.4823 32.5222 23.0717C32.5222 23.9947 32.3584 24.9786 32.0308 26.0235C31.8066 26.8594 31.479 27.7214 31.0479 28.6095C30.4788 29.7763 29.8063 30.8734 29.0304 31.9009C27.8923 32.3188 26.6852 32.6497 25.4092 32.8935C23.1502 33.3637 21.1758 33.4421 19.4859 33.1286C21.8483 32.3275 23.2796 31.1869 23.7796 29.7066Z" fill="white"/>
</svg>
