<svg width="20" height="20" viewBox="0 0 20 20" fill="none" xmlns="http://www.w3.org/2000/svg">
<path d="M15.3846 3.63636H1.53846C1.13044 3.63636 0.739122 3.82792 0.450605 4.1689C0.162087 4.50987 0 4.97233 0 5.45455V18.1818C0 18.664 0.162087 19.1265 0.450605 19.4675C0.739122 19.8084 1.13044 20 1.53846 20H15.3846C15.7926 20 16.184 19.8084 16.4725 19.4675C16.761 19.1265 16.9231 18.664 16.9231 18.1818V5.45455C16.9231 4.97233 16.761 4.50987 16.4725 4.1689C16.184 3.82792 15.7926 3.63636 15.3846 3.63636ZM15.3846 18.1818H1.53846V5.45455H15.3846V18.1818ZM20 1.81818V15.4545C20 15.6957 19.919 15.9269 19.7747 16.0974C19.6304 16.2679 19.4348 16.3636 19.2308 16.3636C19.0268 16.3636 18.8311 16.2679 18.6868 16.0974C18.5426 15.9269 18.4615 15.6957 18.4615 15.4545V1.81818H3.84615C3.64214 1.81818 3.44648 1.7224 3.30223 1.55192C3.15797 1.38143 3.07692 1.1502 3.07692 0.909091C3.07692 0.667985 3.15797 0.436754 3.30223 0.266267C3.44648 0.0957791 3.64214 0 3.84615 0H18.4615C18.8696 0 19.2609 0.191558 19.5494 0.532533C19.8379 0.873508 20 1.33597 20 1.81818Z" fill="white"/>
</svg>
