<svg width="20" height="20" viewBox="0 0 20 20" fill="none" xmlns="http://www.w3.org/2000/svg">
<path d="M3.88938 12.2972H11.6672V11.1261H3.88938V12.2972ZM3.88938 8.78374H16.1116V7.61258H3.88938V8.78374ZM3.88938 5.27025H16.1116V4.09908H3.88938V5.27025ZM0.000488281 20V1.89143C0.000488281 1.3527 0.17197 0.902969 0.514933 0.54225C0.857155 0.18075 1.28382 0 1.79493 0H18.206C18.7172 0 19.1438 0.18075 19.486 0.54225C19.829 0.902969 20.0005 1.3527 20.0005 1.89143V14.5049C20.0005 15.0436 19.8294 15.4937 19.4872 15.8552C19.1442 16.216 18.7172 16.3963 18.206 16.3963H3.41938L0.000488281 20ZM2.94493 15.2252H18.206C18.3764 15.2252 18.5331 15.1502 18.676 15.0003C18.8183 14.8496 18.8894 14.6845 18.8894 14.5049V1.89143C18.8894 1.71185 18.8183 1.54672 18.676 1.39603C18.5331 1.24612 18.3764 1.17117 18.206 1.17117H1.79493C1.62456 1.17117 1.4679 1.24612 1.32493 1.39603C1.18271 1.54672 1.1116 1.71185 1.1116 1.89143V17.1517L2.94493 15.2252Z" fill="white"/>
</svg>
