<svg width="20" height="20" viewBox="0 0 20 20" fill="none" xmlns="http://www.w3.org/2000/svg">
<path fill-rule="evenodd" clip-rule="evenodd" d="M18.9623 4.76388V4.36655C18.9623 2.50726 17.3978 1 15.4679 1C13.538 1 11.9735 2.50726 11.9735 4.36656V4.76388C11.9735 6.62318 13.538 8.13043 15.4679 8.13043C17.3978 8.13043 18.9623 6.62318 18.9623 4.76388ZM15.4679 0C12.9648 0 10.9355 1.95498 10.9355 4.36656V4.76388C10.9355 7.17546 12.9648 9.13043 15.4679 9.13043C17.9711 9.13043 20.0003 7.17546 20.0003 4.76388V4.36655C20.0003 1.95497 17.9711 0 15.4679 0Z" fill="white"/>
<path fill-rule="evenodd" clip-rule="evenodd" d="M18.9623 15.6333V15.2359C18.9623 13.3766 17.3978 11.8694 15.4679 11.8694C13.538 11.8694 11.9735 13.3766 11.9735 15.2359V15.6333C11.9735 17.4926 13.538 18.9998 15.4679 18.9998C17.3978 18.9998 18.9623 17.4926 18.9623 15.6333ZM15.4679 10.8694C12.9648 10.8694 10.9355 12.8244 10.9355 15.2359V15.6333C10.9355 18.0448 12.9648 19.9998 15.4679 19.9998C17.9711 19.9998 20.0003 18.0448 20.0003 15.6333V15.2359C20.0003 12.8244 17.9711 10.8694 15.4679 10.8694Z" fill="white"/>
<path fill-rule="evenodd" clip-rule="evenodd" d="M8.02678 15.6333V15.2359C8.02678 13.3766 6.46229 11.8694 4.53238 11.8694C2.60248 11.8694 1.03798 13.3766 1.03798 15.2359V15.6333C1.03798 17.4926 2.60247 18.9998 4.53238 18.9998C6.46229 18.9998 8.02678 17.4926 8.02678 15.6333ZM4.53238 10.8694C2.02922 10.8694 0 12.8244 0 15.2359V15.6333C0 18.0448 2.02922 19.9998 4.53238 19.9998C7.03554 19.9998 9.06476 18.0448 9.06476 15.6333V15.2359C9.06476 12.8244 7.03554 10.8694 4.53238 10.8694Z" fill="white"/>
<path d="M7.33808 4.56522C7.33808 6.12603 6.0819 7.39131 4.53232 7.39131C2.98274 7.39131 1.72656 6.12603 1.72656 4.56522C1.72656 3.00442 2.98274 1.73914 4.53232 1.73914C6.0819 1.73914 7.33808 3.00442 7.33808 4.56522Z" fill="white"/>
</svg>
