<svg width="20" height="20" viewBox="0 0 20 20" fill="none" xmlns="http://www.w3.org/2000/svg">
<path d="M13.75 20L6.25 17.3495L1.3025 19.2806C0.9825 19.4009 0.685417 19.366 0.41125 19.1758C0.137083 18.9857 0 18.7185 0 18.3744V2.93702C0 2.71236 0.0541668 2.50663 0.1625 2.31983C0.270833 2.13471 0.428333 2.00555 0.635 1.93235L6.25 0L13.75 2.65051L18.6975 0.719424C19.0175 0.599099 19.3146 0.621818 19.5887 0.787581C19.8629 0.953343 20 1.2003 20 1.52846V17.1602C20 17.4017 19.9337 17.6112 19.8012 17.7887C19.6696 17.9671 19.4921 18.0925 19.2688 18.1648L13.75 20ZM13.125 18.4602V3.69305L6.875 1.4906V16.2577L13.125 18.4602ZM14.375 18.4602L18.75 17.0049V2.04847L14.375 3.69431V18.4602ZM1.25 17.9515L5.625 16.2577V1.4906L1.25 2.99508V17.9515Z" fill="#845CFC"/>
</svg>
