<svg width="22" height="22" viewBox="0 0 22 22" fill="none" xmlns="http://www.w3.org/2000/svg">
<path d="M1 18.5002C1 17.1742 1.52678 15.9024 2.46447 14.9647C3.40215 14.027 4.67392 13.5002 6 13.5002H16C17.3261 13.5002 18.5979 14.027 19.5355 14.9647C20.4732 15.9024 21 17.1742 21 18.5002C21 19.1633 20.7366 19.7992 20.2678 20.268C19.7989 20.7369 19.163 21.0002 18.5 21.0002H3.5C2.83696 21.0002 2.20107 20.7369 1.73223 20.268C1.26339 19.7992 1 19.1633 1 18.5002Z" stroke="white" stroke-width="1.25" stroke-linejoin="round"/>
<path d="M11 8.5C13.0711 8.5 14.75 6.82107 14.75 4.75C14.75 2.67893 13.0711 1 11 1C8.92893 1 7.25 2.67893 7.25 4.75C7.25 6.82107 8.92893 8.5 11 8.5Z" stroke="white" stroke-width="1.25"/>
</svg>
