<svg width="14" height="20" viewBox="0 0 14 20" fill="none" xmlns="http://www.w3.org/2000/svg">
<path d="M12.6699 9.11137C12.44 8.77803 12.16 8.48913 11.9001 8.20023C11.2302 7.53355 10.4703 7.05576 9.83046 6.35574C8.34073 4.73347 8.01079 2.05561 8.96062 0C8.01079 0.255563 7.18094 0.833357 6.47107 1.46671C3.88155 3.77789 2.86173 7.85578 4.08151 11.3559C4.1215 11.467 4.16149 11.5781 4.16149 11.7226C4.16149 11.967 4.01152 12.1892 3.81156 12.2781C3.5816 12.3892 3.34165 12.3226 3.15168 12.1448C3.09459 12.0923 3.04708 12.0282 3.01171 11.9559C1.88191 10.367 1.70194 8.08912 2.46181 6.26685C0.792111 7.778 -0.117722 10.3336 0.0122545 12.7448C0.0722435 13.3004 0.132233 13.856 0.302201 14.4115C0.442176 15.0782 0.712126 15.7449 1.01207 16.3338C2.09187 18.2561 3.96153 19.6339 5.97116 19.9117C8.11077 20.2117 10.4004 19.7783 12.0401 18.1339C13.8697 16.2894 14.5096 13.3337 13.5698 10.8003L13.4398 10.5114C13.2298 10.0003 12.6699 9.11137 12.6699 9.11137ZM9.51052 16.1116C9.23057 16.3782 8.77065 16.6671 8.41072 16.7783C7.29092 17.2227 6.17113 16.6005 5.51125 15.8671C6.70103 15.556 7.4109 14.5782 7.62086 13.5893C7.79083 12.7004 7.47089 11.967 7.34091 11.1114C7.22093 10.2892 7.24093 9.58916 7.51088 8.82247C7.70085 9.24471 7.90081 9.66694 8.14077 10.0003C8.91063 11.1114 10.1204 11.6003 10.3804 13.1115C10.4203 13.267 10.4403 13.4226 10.4403 13.5893C10.4703 14.5004 10.1104 15.5004 9.51052 16.1116Z" fill="white"/>
</svg>
