<svg width="14" height="18" viewBox="0 0 14 18" fill="none" xmlns="http://www.w3.org/2000/svg">
<path d="M6.875 10C6.25694 10 5.65275 9.81672 5.13884 9.47334C4.62494 9.12997 4.2244 8.64191 3.98788 8.07089C3.75135 7.49987 3.68947 6.87154 3.81005 6.26534C3.93063 5.65915 4.22825 5.10233 4.66529 4.66529C5.10233 4.22825 5.65915 3.93063 6.26534 3.81005C6.87154 3.68947 7.49987 3.75135 8.07089 3.98788C8.64191 4.2244 9.12997 4.62494 9.47334 5.13884C9.81672 5.65275 10 6.25694 10 6.875C9.99901 7.7035 9.66945 8.49778 9.08361 9.08361C8.49778 9.66945 7.7035 9.99901 6.875 10ZM6.875 5C6.50416 5 6.14165 5.10997 5.83331 5.316C5.52497 5.52202 5.28464 5.81486 5.14273 6.15747C5.00081 6.50008 4.96368 6.87708 5.03603 7.2408C5.10838 7.60451 5.28695 7.9386 5.54918 8.20083C5.8114 8.46305 6.14549 8.64163 6.50921 8.71397C6.87292 8.78632 7.24992 8.74919 7.59253 8.60728C7.93514 8.46536 8.22798 8.22504 8.43401 7.9167C8.64004 7.60835 8.75 7.24584 8.75 6.875C8.74951 6.37787 8.5518 5.90125 8.20028 5.54972C7.84876 5.1982 7.37213 5.0005 6.875 5Z" fill="white"/>
<path d="M6.87501 17.5L1.60251 11.2819C1.52925 11.1885 1.45674 11.0945 1.38501 11C0.48437 9.81361 -0.00217574 8.36452 7.3143e-06 6.875C7.3143e-06 5.05164 0.724336 3.30295 2.01365 2.01364C3.30296 0.724328 5.05164 0 6.87501 0C8.69837 0 10.4471 0.724328 11.7364 2.01364C13.0257 3.30295 13.75 5.05164 13.75 6.875C13.7522 8.36384 13.2659 9.81228 12.3656 10.9981L12.365 11C12.365 11 12.1775 11.2463 12.1494 11.2794L6.87501 17.5ZM2.38251 10.2469C2.38376 10.2469 2.52876 10.4394 2.56188 10.4806L6.87501 15.5675L11.1938 10.4737C11.2213 10.4394 11.3675 10.2456 11.3681 10.245C12.1039 9.2757 12.5015 8.09189 12.5 6.875C12.5 5.38316 11.9074 3.95242 10.8525 2.89752C9.79759 1.84263 8.36685 1.25 6.87501 1.25C5.38316 1.25 3.95242 1.84263 2.89753 2.89752C1.84264 3.95242 1.25001 5.38316 1.25001 6.875C1.2487 8.09265 1.64612 9.27713 2.38251 10.2469Z" fill="white"/>
</svg>
