<svg width="29" height="28" viewBox="0 0 29 28" fill="none" xmlns="http://www.w3.org/2000/svg">
<path d="M14.3331 8.15479C11.0057 8.15479 8.36084 10.7344 8.36084 13.9798C8.36084 17.2251 11.0057 19.8048 14.3331 19.8048C17.6604 19.8048 20.3053 17.2251 20.3053 13.9798C20.3053 10.7344 17.6604 8.15479 14.3331 8.15479ZM14.3331 18.1405C11.9442 18.1405 10.0672 16.3098 10.0672 13.9798C10.0672 11.6498 11.9442 9.81907 14.3331 9.81907C16.722 9.81907 18.5989 11.6498 18.5989 13.9798C18.5989 16.3098 16.722 18.1405 14.3331 18.1405Z" fill="#845CFC"/>
<path d="M27.5917 11.0966L25.0833 10.3103L24.5458 8.99963L25.8 6.72787C26.0687 6.20362 25.9792 5.50462 25.5312 5.06775L23.3813 2.97075C22.9333 2.53387 22.2167 2.4465 21.6792 2.70862L19.35 3.93187L18.0063 3.40762L17.2 0.961125C17.0208 0.436875 16.4833 0 15.8563 0H12.8104C12.1833 0 11.6458 0.436875 11.5562 1.0485L10.75 3.495C10.2125 3.58237 9.76458 3.75712 9.31667 4.01925L6.9875 2.796C6.45 2.53387 5.73333 2.62125 5.28542 3.05813L3.13542 5.15513C2.6875 5.592 2.59792 6.291 2.86667 6.81525L4.03125 8.99963C3.85208 9.4365 3.67292 9.96075 3.49375 10.3976L0.985417 11.184C0.447917 11.3587 0 11.883 0 12.4946V15.4654C0 16.077 0.447917 16.6012 1.075 16.776L3.58333 17.5624L4.12083 18.873L2.86667 21.1448C2.59792 21.669 2.6875 22.368 3.13542 22.8049L5.28542 24.9019C5.73333 25.3387 6.45 25.4261 6.9875 25.164L9.31667 23.9407L10.6604 24.465L11.4667 26.9989C11.6458 27.5231 12.1833 27.96 12.8104 27.96H15.8563C16.4833 27.96 17.0208 27.5231 17.2 26.9989L18.0063 24.465L19.35 23.9407L21.6792 25.164C22.2167 25.4261 22.9333 25.3387 23.3813 24.9019L25.5312 22.8049C25.9792 22.368 26.0687 21.669 25.8 21.1448L24.5458 18.873L25.0833 17.5624L27.6813 16.776C28.2188 16.6012 28.6667 16.077 28.6667 15.4654V12.4946C28.6667 11.883 28.2187 11.2714 27.5917 11.0966ZM26.875 15.2032L23.65 16.1644L23.5604 16.6012L22.7542 18.4361L22.4854 18.873L24.0979 21.7564L22.3062 23.5039L19.35 21.9311L18.9021 22.1932C18.275 22.5427 17.6479 22.8049 17.0208 22.9796L16.5729 23.067L15.5875 26.2125H13.0792L12.0938 23.067L11.6458 22.9796L9.76458 22.1932L9.31667 21.9311L6.36042 23.5039L4.56875 21.7564L6.18125 18.873L5.9125 18.4361C5.55417 17.8245 5.28542 17.2129 5.10625 16.6012L5.01667 16.1644L1.79167 15.2032V12.7568L4.8375 11.883L5.01667 11.4461C5.19583 10.7471 5.46458 10.1355 5.82292 9.52387L6.09167 9.087L4.56875 6.20363L6.36042 4.45612L9.22708 6.02887L9.675 5.76675C10.3021 5.41725 10.9292 5.15512 11.6458 4.98037L12.0938 4.80562L13.0792 1.7475H15.5875L16.5729 4.80562L17.0208 4.98037C17.6479 5.15512 18.275 5.41725 18.9021 5.76675L19.35 6.02887L22.3062 4.45612L24.0979 6.20363L22.4854 9.087L22.7542 9.52387C23.1125 10.1355 23.3812 10.7471 23.5604 11.3587L23.65 11.7956L26.875 12.7568V15.2032Z" fill="#845CFC"/>
</svg>
