<svg width="16" height="20" viewBox="0 0 16 20" fill="none" xmlns="http://www.w3.org/2000/svg">
<path d="M11.5 7.23077H13.25C13.7141 7.23077 14.1592 7.41312 14.4874 7.7377C14.8156 8.06228 15 8.50251 15 8.96154V17.2692C15 17.7283 14.8156 18.1685 14.4874 18.4931C14.1592 18.8177 13.7141 19 13.25 19H2.75C2.28587 19 1.84075 18.8177 1.51256 18.4931C1.18437 18.1685 1 17.7283 1 17.2692V8.96154C1 8.50251 1.18437 8.06228 1.51256 7.7377C1.84075 7.41312 2.28587 7.23077 2.75 7.23077H4.5M11.5 4.46154L8 1M8 1L4.5 4.46154M8 1V12.8125" stroke="white" stroke-width="1.25" stroke-linecap="round" stroke-linejoin="round"/>
</svg>
