<svg width="31" height="31" viewBox="0 0 31 31" fill="none" xmlns="http://www.w3.org/2000/svg">
<path d="M15.5 0C24.0605 0 31 6.94021 31 15.5015C31 24.0613 24.0589 31 15.5 31C6.93951 31.0016 0 24.0613 0 15.5015C0 6.94021 6.93951 0 15.5 0ZM15.5 2.32477C13.7578 2.30587 12.0293 2.63272 10.4143 3.2864C8.79926 3.94008 7.32993 4.90761 6.09131 6.133C4.85269 7.35838 3.86938 8.81727 3.19828 10.4253C2.52719 12.0332 2.18165 13.7584 2.18165 15.5008C2.18165 17.2432 2.52719 18.9683 3.19828 20.5763C3.86938 22.1843 4.85269 23.6432 6.09131 24.8686C7.32993 26.0939 8.79926 27.0615 10.4143 27.7151C12.0293 28.3688 13.7578 28.6957 15.5 28.6768C18.9694 28.6392 22.2839 27.2344 24.7239 24.7675C27.164 22.3006 28.5326 18.9707 28.5326 15.5008C28.5326 12.0308 27.164 8.70094 24.7239 6.23404C22.2839 3.76715 18.9694 2.3624 15.5 2.32477ZM10.0172 19.8148C10.6695 20.6451 11.502 21.3162 12.4519 21.7773C13.4018 22.2383 14.4442 22.4772 15.5 22.4759C16.5547 22.4771 17.5959 22.2387 18.5449 21.7785C19.4939 21.3183 20.326 20.6484 20.9782 19.8194C21.0728 19.6996 21.1901 19.5997 21.3233 19.5252C21.4566 19.4508 21.6032 19.4033 21.7548 19.3856C21.9064 19.3678 22.06 19.38 22.2069 19.4216C22.3538 19.4632 22.491 19.5334 22.6107 19.628C22.7305 19.7227 22.8305 19.84 22.9049 19.9732C22.9793 20.1065 23.0268 20.2531 23.0446 20.4048C23.0623 20.5564 23.0501 20.71 23.0085 20.8569C22.9669 21.0038 22.8968 21.141 22.8021 21.2608C21.9324 22.3652 20.8233 23.2578 19.5583 23.871C18.2934 24.4842 16.9057 24.802 15.5 24.8006C14.0922 24.802 12.7026 24.4832 11.4362 23.8683C10.1698 23.2534 9.05977 22.3586 8.19011 21.2515C8.09568 21.1315 8.02581 20.9941 7.98448 20.8471C7.94315 20.7001 7.93117 20.5464 7.94923 20.3948C7.96729 20.2432 8.01503 20.0966 8.08973 19.9635C8.16443 19.8303 8.26463 19.7132 8.3846 19.6187C8.50457 19.5243 8.64196 19.4544 8.78893 19.4131C8.9359 19.3717 9.08957 19.3597 9.24118 19.3778C9.39278 19.3959 9.53934 19.4436 9.67249 19.5183C9.80564 19.593 9.92277 19.6932 10.0172 19.8132V19.8148ZM10.8509 10.4646C11.1098 10.4572 11.3676 10.5019 11.6089 10.5959C11.8502 10.6899 12.0702 10.8314 12.2559 11.012C12.4417 11.1925 12.5893 11.4085 12.6901 11.6471C12.7909 11.8857 12.8428 12.1421 12.8428 12.4011C12.8428 12.6601 12.7909 12.9165 12.6901 13.1551C12.5893 13.3937 12.4417 13.6097 12.2559 13.7902C12.0702 13.9707 11.8502 14.1122 11.6089 14.2062C11.3676 14.3003 11.1098 14.3449 10.8509 14.3376C10.3469 14.3234 9.86823 14.1131 9.51673 13.7515C9.16524 13.3898 8.9686 12.9054 8.9686 12.4011C8.9686 11.8968 9.16524 11.4123 9.51673 11.0507C9.86823 10.6891 10.3469 10.4788 10.8509 10.4646ZM20.1491 10.4646C20.408 10.4572 20.6657 10.5019 20.907 10.5959C21.1484 10.6899 21.3684 10.8314 21.5541 11.012C21.7398 11.1925 21.8874 11.4085 21.9882 11.6471C22.089 11.8857 22.141 12.1421 22.141 12.4011C22.141 12.6601 22.089 12.9165 21.9882 13.1551C21.8874 13.3937 21.7398 13.6097 21.5541 13.7902C21.3684 13.9707 21.1484 14.1122 20.907 14.2062C20.6657 14.3003 20.408 14.3449 20.1491 14.3376C19.645 14.3234 19.1664 14.1131 18.8149 13.7515C18.4634 13.3898 18.2667 12.9054 18.2667 12.4011C18.2667 11.8968 18.4634 11.4123 18.8149 11.0507C19.1664 10.6891 19.645 10.4788 20.1491 10.4646Z" fill="#845CFC"/>
</svg>
