<svg width="91" height="124" viewBox="0 0 91 124" fill="none" xmlns="http://www.w3.org/2000/svg">
<path d="M90.4731 122.038L90.4731 122.038C90.229 122.485 89.8378 122.853 89.3527 123.084L89.3527 123.084C89.0906 123.208 88.777 123.277 88.321 123.311C87.8624 123.346 87.2813 123.347 86.4877 123.347L4.51228 123.347C3.71872 123.347 3.1376 123.346 2.67905 123.311C2.22296 123.277 1.90937 123.208 1.64731 123.084C1.16222 122.853 0.770935 122.485 0.526901 122.038C0.396393 121.798 0.324417 121.511 0.287468 121.089C0.250221 120.663 0.25 120.122 0.25 119.379V95.2301C2.48092 95.1089 4.2759 93.3762 4.2759 91.2243C4.2759 89.0724 2.48092 87.3397 0.25 87.2185L0.25 4.21716C0.25 3.47474 0.250221 2.93401 0.287468 2.50794C0.324417 2.08533 0.396393 1.79833 0.526894 1.55896L0.307396 1.43929L0.526917 1.55891C0.770866 1.11125 1.16205 0.744461 1.64725 0.512848C1.90933 0.388123 2.22294 0.319969 2.67904 0.285156C3.13759 0.250168 3.71873 0.249992 4.51228 0.249992L86.4877 0.249992C87.2813 0.249992 87.8624 0.250168 88.321 0.285156C88.7769 0.319962 89.0905 0.388084 89.3525 0.512733C89.8378 0.744331 90.2291 1.11117 90.4731 1.55894L90.6926 1.43932L90.4731 1.55895C90.6036 1.79832 90.6756 2.08533 90.7125 2.50794C90.7498 2.93401 90.75 3.47474 90.75 4.21716L90.75 87.2185C88.5191 87.3397 86.7241 89.0724 86.7241 91.2243C86.7241 93.3762 88.5191 95.1089 90.75 95.2301V119.379C90.75 120.122 90.7498 120.663 90.7125 121.089C90.6756 121.511 90.6036 121.798 90.4731 122.038ZM79.0264 88.8446C77.6461 88.8446 76.4976 89.8944 76.4976 91.2243C76.4976 92.5543 77.6461 93.6041 79.0264 93.6041C80.4069 93.6041 81.5553 92.5542 81.5553 91.2243C81.5553 89.8944 80.4069 88.8446 79.0264 88.8446ZM71.0226 88.8446C69.6421 88.8446 68.4938 89.8944 68.4938 91.2243C68.4938 92.5542 69.6421 93.6041 71.0226 93.6041C72.4029 93.6041 73.5514 92.5543 73.5514 91.2243C73.5514 89.8944 72.4029 88.8446 71.0226 88.8446ZM62.515 88.8446C61.1346 88.8446 59.9863 89.8944 59.9863 91.2243C59.9863 92.5542 61.1346 93.6041 62.515 93.6041C63.8955 93.6041 65.0438 92.5542 65.0438 91.2243C65.0438 89.8944 63.8955 88.8446 62.515 88.8446ZM54.0075 88.8446C52.6271 88.8446 51.4787 89.8944 51.4787 91.2243C51.4787 92.5543 52.6271 93.6041 54.0075 93.6041C55.388 93.6041 56.5363 92.5542 56.5363 91.2243C56.5363 89.8944 55.388 88.8446 54.0075 88.8446ZM45.5 88.8446C44.1196 88.8446 42.9712 89.8944 42.9712 91.2243C42.9712 92.5542 44.1196 93.6041 45.5 93.6041C46.8804 93.6041 48.0288 92.5542 48.0288 91.2243C48.0288 89.8944 46.8804 88.8446 45.5 88.8446ZM36.9925 88.8446C35.6121 88.8446 34.4637 89.8944 34.4637 91.2243C34.4637 92.5543 35.6121 93.6041 36.9925 93.6041C38.373 93.6041 39.5213 92.5542 39.5213 91.2243C39.5213 89.8944 38.373 88.8446 36.9925 88.8446ZM28.485 88.8446C27.1045 88.8446 25.9562 89.8944 25.9562 91.2243C25.9562 92.5542 27.1045 93.6041 28.485 93.6041C29.8654 93.6041 31.0138 92.5543 31.0138 91.2243C31.0138 89.8944 29.8654 88.8446 28.485 88.8446ZM19.9774 88.8446C18.597 88.8446 17.4487 89.8944 17.4487 91.2243C17.4487 92.5542 18.597 93.6041 19.9774 93.6041C21.3579 93.6041 22.5062 92.5542 22.5062 91.2243C22.5062 89.8944 21.3579 88.8446 19.9774 88.8446ZM11.47 88.8446C10.0895 88.8446 8.94116 89.8944 8.94116 91.2243C8.94116 92.5542 10.0895 93.6041 11.47 93.6041C12.8503 93.6041 13.9988 92.5543 13.9988 91.2243C13.9988 89.8944 12.8503 88.8446 11.47 88.8446Z" stroke="white" stroke-width="0.5"/>
</svg>
